<svg width="15" height="15" viewBox="0 0 14 15" fill="none" xmlns="http://www.w3.org/2000/svg">
<path fill-rule="evenodd" clip-rule="evenodd" d="M7 14.5C10.866 14.5 14 11.366 14 7.5C14 3.63401 10.866 0.500002 7 0.500001C3.13401 0.5 -2.09991e-07 3.63401 -1.22392e-06 7.5C-2.23785e-06 11.366 3.134 14.5 7 14.5ZM3.58238 5.79954C3.47349 5.90065 3.41905 6.03287 3.41905 6.17287C3.41905 6.29731 3.45794 6.41398 3.55127 6.51509L6.603 9.65731C6.82078 9.89842 7.19411 9.89842 7.41189 9.65731L10.4502 6.49954C10.6368 6.28954 10.6213 5.97065 10.419 5.78398C10.209 5.59732 9.89016 5.60509 9.70349 5.81509L7.0019 8.59461L4.29794 5.83065C4.11127 5.62843 3.79238 5.61287 3.58238 5.79954Z" fill="currentColor"/>
</svg>
