<svg width="20" height="22" viewBox="0 0 18 20" fill="none" xmlns="http://www.w3.org/2000/svg">
<path d="M14.6351 20C16.4116 20 17.8517 18.5599 17.8517 16.7834V6.06136C17.8517 4.46156 16.6839 3.13453 15.1541 2.8864C15.1326 2.67797 15.0911 2.47499 15.0315 2.2796C14.9192 1.91143 14.5298 1.70401 14.1616 1.8163C13.7934 1.92859 13.586 2.31808 13.6983 2.68624C13.7141 2.73806 13.7277 2.79093 13.7389 2.84474H6.05747C4.28098 2.84474 2.84085 4.28488 2.84085 6.06136V16.4232C2.78741 16.4121 2.73491 16.3986 2.68346 16.3829C2.31529 16.2707 1.92582 16.478 1.81352 16.8462C1.70123 17.2144 1.90865 17.6038 2.27681 17.7161C2.51516 17.7888 2.7648 17.8345 3.02186 17.8499C3.46179 19.1023 4.65478 20 6.05747 20H14.6351Z" fill="currentColor"/>
<path d="M1.47276 15.1722C1.58505 15.5404 1.37763 15.9298 1.00947 16.0422C0.641304 16.1545 0.251819 15.947 0.139528 15.5789C0.0486389 15.2809 0 14.9653 0 14.6395V13.6277C0 13.2428 0.312028 12.9308 0.696934 12.9308C1.08184 12.9308 1.39387 13.2428 1.39387 13.6277V14.6395C1.39387 14.826 1.42163 15.0046 1.47276 15.1722Z" fill="currentColor"/>
<path d="M1.39387 10.2885C1.39387 10.6734 1.08184 10.9854 0.696934 10.9854C0.312028 10.9854 0 10.6734 0 10.2885V8.26468C0 7.87978 0.312028 7.56775 0.696934 7.56775C1.08184 7.56775 1.39387 7.87978 1.39387 8.26468V10.2885Z" fill="currentColor"/>
<path d="M1.39387 4.92543C1.39387 5.31033 1.08184 5.62236 0.696934 5.62236C0.312028 5.62236 0 5.31033 0 4.92543V3.91353C0 3.51694 0.0592141 3.13291 0.169761 2.77047C0.282053 2.40231 0.671537 2.19488 1.0397 2.30717C1.40786 2.41947 1.61528 2.80896 1.50299 3.17712C1.4322 3.40921 1.39387 3.65626 1.39387 3.91353V4.92543Z" fill="currentColor"/>
<path d="M3.17717 1.503C2.80902 1.61529 2.41953 1.40786 2.30724 1.0397C2.19494 0.671538 2.40236 0.282055 2.77053 0.169761C3.13297 0.0592148 3.51701 0 3.91359 0H4.60643C4.99134 0 5.30337 0.312029 5.30337 0.696933C5.30337 1.08184 4.99134 1.39387 4.60643 1.39387H3.91359C3.65632 1.39387 3.40927 1.4322 3.17717 1.503Z" fill="currentColor"/>
<path d="M12.8915 0.139701C13.2597 0.251991 13.4672 0.641475 13.3548 1.00964C13.2426 1.37779 12.853 1.58522 12.485 1.47293C12.3169 1.42169 12.1379 1.39387 11.9511 1.39387H11.1274C10.7425 1.39387 10.4305 1.08184 10.4305 0.696933C10.4305 0.312029 10.7425 0 11.1274 0H11.9511C12.2772 0 12.5932 0.0486996 12.8915 0.139701Z" fill="currentColor"/>
<path d="M6.89273 1.39387C6.50782 1.39387 6.1958 1.08184 6.1958 0.696933C6.1958 0.312029 6.50782 0 6.89273 0H8.40926C8.79416 0 9.1062 0.312029 9.1062 0.696933C9.1062 1.08184 8.79416 1.39387 8.40926 1.39387H6.89273Z" fill="currentColor"/>
</svg>
