<svg width="20" height="20" viewBox="0 0 20 21" fill="none" xmlns="http://www.w3.org/2000/svg">
<path fill-rule="evenodd" clip-rule="evenodd" d="M0 10C0 4.47716 4.47716 0 10 0C15.5229 0 20 4.47716 20 10C20 15.5229 15.5229 20 10 20C4.47716 20 0 15.5229 0 10ZM14.4444 5.64531C14.7264 5.92736 14.7264 6.38464 14.4444 6.66669L11.0214 10L14.3547 13.4231C14.6368 13.7051 14.6368 14.1624 14.3547 14.4444C14.0727 14.7264 13.6153 14.7264 13.3333 14.4444L10 11.0214L6.66669 14.4444C6.38464 14.7266 5.92736 14.7266 5.64531 14.4444C5.36327 14.1624 5.36327 13.7051 5.64531 13.4231L8.97865 10L5.64528 6.66669C5.36323 6.38464 5.36323 5.92736 5.64528 5.64531C5.92732 5.36327 6.38461 5.36327 6.66666 5.64531L10 8.97867L13.4231 5.64531C13.7051 5.36327 14.1624 5.36327 14.4444 5.64531Z" fill="currentColor"/>
</svg>
