<svg width="22" height="22" viewBox="0 0 20 22" fill="none" xmlns="http://www.w3.org/2000/svg">
<path d="M9.32269 4.05294H9.90307V3.47256V1.17412C9.90307 1.07795 9.98103 1 10.0772 1C10.1733 1 10.2513 1.07795 10.2513 1.17412V3.47256V4.05294H10.8317H18.9918C19.0879 4.05294 19.1659 4.1309 19.1659 4.22705C19.1659 4.32322 19.0879 4.40117 18.9918 4.40117H18.0815H17.5391L17.5025 4.94245L16.6019 18.2795L16.6016 18.2856C16.5148 19.8083 15.2407 21 13.7103 21H6.32789C4.80065 21 3.53319 19.8107 3.43643 18.282L3.43634 18.2805L2.5572 4.94338L2.52147 4.40117H1.97808H1.17411C1.07795 4.40117 1 4.32322 1 4.22705C1 4.1309 1.07795 4.05294 1.17411 4.05294H9.32269ZM9.29939 8.66123C9.29939 7.92401 8.70175 7.32636 7.96452 7.32636C7.22729 7.32636 6.62965 7.92401 6.62965 8.66123V16.0321C6.62965 16.7693 7.22729 17.3669 7.96452 17.3669C8.70175 17.3669 9.29939 16.7693 9.29939 16.0321V8.66123ZM13.5361 8.66123C13.5361 7.92401 12.9385 7.32636 12.2012 7.32636C11.464 7.32636 10.8664 7.92401 10.8664 8.66123V16.0321C10.8664 16.7693 11.464 17.3669 12.2012 17.3669C12.9385 17.3669 13.5361 16.7693 13.5361 16.0321V8.66123Z" fill="currentColor" stroke="currentColor"/>
</svg>
