<svg width="87" height="38" viewBox="0 0 87 38" fill="none" xmlns="http://www.w3.org/2000/svg">
<path d="M1.54272 19.0046C1.54272 9.66269 9.11582 2.0896 18.4577 2.0896L68.09 2.0896C77.4318 2.0896 85.005 9.66269 85.005 19.0046C85.005 28.3465 77.4319 35.9195 68.09 35.9195L18.4577 35.9195C9.11583 35.9195 1.54272 28.3465 1.54272 19.0046Z" fill="#90FFA2"/>
<path fill-rule="evenodd" clip-rule="evenodd" d="M18.4578 0.621094L68.0901 0.621094C78.2431 0.621094 86.4738 8.85172 86.4738 19.0047C86.4738 29.1577 78.2431 37.3884 68.0901 37.3884L18.4579 37.3884C8.30487 37.3884 0.0742187 29.1577 0.0742187 19.0047C0.0742187 8.85173 8.30485 0.621094 18.4578 0.621094ZM18.4578 2.08975C9.11597 2.08975 1.54287 9.66284 1.54287 19.0047C1.54287 28.3466 9.11598 35.9197 18.4579 35.9197L68.0901 35.9197C77.432 35.9197 85.0051 28.3466 85.0051 19.0047C85.0051 9.66284 77.432 2.08975 68.0901 2.08975L18.4578 2.08975Z" fill="white"/>
<path d="M16.9444 27.3501V10.6609L13.5466 10.6942V27.3501H16.9444Z" fill="#282828"/>
<path d="M23.6849 14.0587V27.3501H27.0494V14.0587H32.1128V10.6942H18.6215V14.0587H23.6849Z" fill="#282828"/>
<path d="M66.3384 10.6941L62.0079 27.0169V10.6941H55.3455L50.915 27.35H54.2795L58.6101 11.0272V27.35H65.2725L69.603 11.0272V27.35H73.0008V10.6941H66.3384Z" fill="#282828"/>
<path d="M44.6452 26.5491H48.0097L43.6125 15.001L40.298 15.001L36.9835 15.001L32.553 26.5491H35.9175L40.298 15.001L44.6452 26.5491Z" fill="#282828"/>
<path fill-rule="evenodd" clip-rule="evenodd" d="M44.0911 27.35L40.2954 17.267L36.4707 27.35H31.3879L36.4331 14.1997H44.165L49.1722 27.35H44.0911ZM40.2983 15.0008L44.6455 26.5489H48.01L43.6128 15.0008L40.2983 15.0008L36.9838 15.0008L32.5533 26.5489H35.9178L40.2983 15.0008Z" fill="white"/>
</svg>
