<svg width="106" height="23" viewBox="0 0 106 23" fill="none" xmlns="http://www.w3.org/2000/svg">
<path d="M9.45278 18.336C8.10878 18.336 6.86878 18.12 5.73278 17.688C4.59678 17.256 3.60478 16.648 2.75678 15.864C1.92478 15.064 1.27678 14.136 0.812781 13.08C0.348781 12.024 0.116781 10.864 0.116781 9.6C0.116781 8.336 0.348781 7.176 0.812781 6.12C1.27678 5.064 1.92478 4.144 2.75678 3.36C3.60478 2.56 4.59678 1.944 5.73278 1.512C6.86878 1.08 8.10878 0.863999 9.45278 0.863999C10.8128 0.863999 12.0528 1.08 13.1728 1.512C14.3088 1.944 15.2928 2.552 16.1248 3.336C16.9568 4.12 17.6048 5.048 18.0688 6.12C18.5488 7.176 18.7888 8.336 18.7888 9.6C18.7888 10.864 18.5488 12.032 18.0688 13.104C17.6048 14.16 16.9568 15.08 16.1248 15.864C15.2928 16.648 14.3088 17.256 13.1728 17.688C12.0528 18.12 10.8128 18.336 9.45278 18.336ZM14.9488 22.056C14.2288 22.056 13.5568 21.976 12.9328 21.816C12.3088 21.672 11.6928 21.432 11.0848 21.096C10.4928 20.76 9.86878 20.304 9.21278 19.728C8.57278 19.152 7.85278 18.44 7.05278 17.592L12.0208 16.344C12.4208 16.936 12.7808 17.4 13.1008 17.736C13.4208 18.072 13.7328 18.312 14.0368 18.456C14.3568 18.6 14.6928 18.672 15.0448 18.672C15.9728 18.672 16.8208 18.28 17.5888 17.496L19.6528 19.944C18.4848 21.352 16.9168 22.056 14.9488 22.056ZM9.45278 14.4C10.0928 14.4 10.6848 14.288 11.2288 14.064C11.7888 13.84 12.2688 13.52 12.6688 13.104C13.0848 12.672 13.4048 12.16 13.6288 11.568C13.8688 10.976 13.9888 10.32 13.9888 9.6C13.9888 8.864 13.8688 8.208 13.6288 7.632C13.4048 7.04 13.0848 6.536 12.6688 6.12C12.2688 5.688 11.7888 5.36 11.2288 5.136C10.6848 4.912 10.0928 4.8 9.45278 4.8C8.81278 4.8 8.21278 4.912 7.65278 5.136C7.10878 5.36 6.62878 5.688 6.21278 6.12C5.81278 6.536 5.49278 7.04 5.25278 7.632C5.02878 8.208 4.91678 8.864 4.91678 9.6C4.91678 10.32 5.02878 10.976 5.25278 11.568C5.49278 12.16 5.81278 12.672 6.21278 13.104C6.62878 13.52 7.10878 13.84 7.65278 14.064C8.21278 14.288 8.81278 14.4 9.45278 14.4ZM60.4417 18V1.2H65.1937V14.232H73.2097V18H60.4417ZM75.0902 18V1.2H79.8422V14.232H87.8582V18H75.0902Z" fill="#90FFA2"/>
<path d="M29.0297 18.336C26.5497 18.336 24.6137 17.656 23.2217 16.296C21.8297 14.936 21.1337 13.008 21.1337 10.512V1.2H25.8857V10.368C25.8857 11.808 26.1657 12.84 26.7257 13.464C27.3017 14.088 28.0857 14.4 29.0777 14.4C30.0697 14.4 30.8457 14.088 31.4057 13.464C31.9657 12.84 32.2457 11.808 32.2457 10.368V1.2H36.9257V10.512C36.9257 13.008 36.2297 14.936 34.8377 16.296C33.4457 17.656 31.5097 18.336 29.0297 18.336ZM48.6168 18.336C47.2728 18.336 46.0328 18.12 44.8968 17.688C43.7608 17.256 42.7688 16.648 41.9208 15.864C41.0888 15.064 40.4408 14.136 39.9768 13.08C39.5128 12.024 39.2808 10.864 39.2808 9.6C39.2808 8.336 39.5128 7.176 39.9768 6.12C40.4408 5.064 41.0888 4.144 41.9208 3.36C42.7688 2.56 43.7608 1.944 44.8968 1.512C46.0328 1.08 47.2728 0.863999 48.6168 0.863999C49.9768 0.863999 51.2168 1.08 52.3368 1.512C53.4728 1.944 54.4568 2.56 55.2888 3.36C56.1208 4.144 56.7688 5.064 57.2328 6.12C57.7128 7.176 57.9528 8.336 57.9528 9.6C57.9528 10.864 57.7128 12.032 57.2328 13.104C56.7688 14.16 56.1208 15.08 55.2888 15.864C54.4568 16.648 53.4728 17.256 52.3368 17.688C51.2168 18.12 49.9768 18.336 48.6168 18.336ZM48.6168 14.4C49.2568 14.4 49.8488 14.288 50.3928 14.064C50.9528 13.84 51.4328 13.52 51.8328 13.104C52.2488 12.672 52.5688 12.16 52.7928 11.568C53.0328 10.976 53.1528 10.32 53.1528 9.6C53.1528 8.864 53.0328 8.208 52.7928 7.632C52.5688 7.04 52.2488 6.536 51.8328 6.12C51.4328 5.688 50.9528 5.36 50.3928 5.136C49.8488 4.912 49.2568 4.8 48.6168 4.8C47.9768 4.8 47.3768 4.912 46.8168 5.136C46.2728 5.36 45.7928 5.688 45.3768 6.12C44.9768 6.536 44.6568 7.04 44.4168 7.632C44.1928 8.208 44.0808 8.864 44.0808 9.6C44.0808 10.32 44.1928 10.976 44.4168 11.568C44.6568 12.16 44.9768 12.672 45.3768 13.104C45.7928 13.52 46.2728 13.84 46.8168 14.064C47.3768 14.288 47.9768 14.4 48.6168 14.4ZM93.9866 18V10.896L95.0906 13.752L87.5786 1.2H92.5946L98.0186 10.296H95.1146L100.563 1.2H105.171L97.6826 13.752L98.7386 10.896V18H93.9866Z" fill="white"/>
</svg>
