<svg width="36" height="38" viewBox="0 0 36 38" fill="none" xmlns="http://www.w3.org/2000/svg">
<path d="M20.7 7.92508C19.26 7.92508 18 9.21003 18 10.6785C18 12.1471 19.26 13.432 20.7 13.432C22.14 13.432 23.4 12.1471 23.4 10.6785C23.4 9.21003 22.14 7.92508 20.7 7.92508ZM30.6 0.58252H5.4C2.34 0.58252 0 2.96885 0 6.08944V31.7884C0 34.909 2.34 37.2953 5.4 37.2953H30.6C33.66 37.2953 36 34.909 36 31.7884V6.08944C36 2.96885 33.66 0.58252 30.6 0.58252ZM32.4 22.4266L28.98 18.9389C26.82 16.9197 23.4 16.9197 21.42 18.9389L19.8 20.591L14.58 15.2676C12.42 13.2484 9 13.2484 7.02 15.2676L3.6 18.7554V6.08944C3.6 4.98806 4.32 4.2538 5.4 4.2538H30.6C31.68 4.2538 32.4 4.98806 32.4 6.08944V22.4266Z" fill="currentColor" />
</svg>
