<svg width="16" height="16" viewBox="0 0 16 16" fill="none" xmlns="http://www.w3.org/2000/svg">
<path fill-rule="evenodd" clip-rule="evenodd" d="M4.79621 2.29539L2.81205 2.6474C1.70886 2.84312 1.15727 2.94098 0.774 3.23043C0.436864 3.48504 0.188986 3.83984 0.0658923 4.24398C-0.0740471 4.70343 0.0238125 5.25503 0.219532 6.35821L1.43121 13.1879C1.62693 14.2911 1.72479 14.8427 2.01424 15.226C2.26885 15.5631 2.62365 15.811 3.02779 15.9341C3.48724 16.074 4.03884 15.9762 5.14202 15.7805L8.49031 15.1864C9.02644 15.0913 9.43229 15.0193 9.75186 14.9372L7.20197 14.4876C6.69091 14.3975 6.23101 14.3164 5.85389 14.2177C5.45005 14.112 5.02803 13.9594 4.63963 13.6668C4.0773 13.243 3.66354 12.6521 3.45768 11.9788C3.31549 11.5137 3.31648 11.0649 3.35526 10.6493C3.39146 10.2612 3.47257 9.80129 3.56271 9.29026L4.7538 2.53524C4.76813 2.45395 4.78223 2.37395 4.79621 2.29539Z" fill="currentColor"/>
<path d="M6.05883 2.81425C6.25339 1.71086 6.35067 1.15916 6.63971 0.775587C6.89396 0.438184 7.2485 0.189933 7.65252 0.0664133C8.11182 -0.0740097 8.66352 0.0232691 9.76691 0.217827L13.1862 0.820749C14.2896 1.01531 14.8413 1.11259 15.2249 1.40163C15.5623 1.65588 15.8106 2.01042 15.9341 2.41444C16.0745 2.87374 15.9772 3.42544 15.7827 4.52883L14.6083 11.189C14.4137 12.2924 14.3165 12.8441 14.0274 13.2277C13.7732 13.5651 13.4186 13.8133 13.0146 13.9369C12.5553 14.0773 12.0036 13.98 10.9002 13.7854L7.48088 13.1825C6.37749 12.988 5.8258 12.8907 5.44222 12.6016C5.10482 12.3474 4.85656 11.9928 4.73305 11.5888C4.59262 11.1295 4.6899 10.5778 4.88446 9.47445L6.05883 2.81425Z" fill="currentColor"/>
</svg>
