<svg width="19" height="18" viewBox="0 0 19 18" fill="none" xmlns="http://www.w3.org/2000/svg">
<path d="M9.42864 2.10137L11.3968 6.09909L11.7043 6.72437L12.4013 6.82688L16.8091 7.47267L13.6211 10.5888L13.1188 11.0809L13.2419 11.7677L14.0004 16.1651L10.0539 14.0945L9.42864 13.7563L8.81361 14.0843L4.86714 16.1549L5.62568 11.7574L5.74869 11.0706L5.24641 10.5786L2.05848 7.46241L6.46623 6.81663L7.16327 6.71412L7.47078 6.08884L9.42864 2.10137ZM9.42864 0C9.17238 0 8.91611 0.133257 8.78286 0.399772L6.26122 5.51481L0.613153 6.33485C0.0288705 6.41686 -0.206893 7.14465 0.213381 7.55467L4.30336 11.5319L3.3398 17.1492C3.2578 17.6105 3.62682 17.9897 4.04709 17.9897C4.15985 17.9897 4.27261 17.959 4.38536 17.9077L9.42864 15.2631L14.4719 17.918C14.5847 17.9795 14.6974 18 14.8102 18C15.2305 18 15.5995 17.6207 15.5175 17.1595L14.5539 11.5319L18.6337 7.55467C19.0642 7.14465 18.8284 6.41686 18.2339 6.33485L12.5858 5.51481L10.0642 0.399772C9.94117 0.133257 9.68491 0 9.42864 0Z" fill="white"/>
</svg>
