<svg width="18" height="18" viewBox="0 0 18 18" fill="none" xmlns="http://www.w3.org/2000/svg">
<path fill-rule="evenodd" clip-rule="evenodd" d="M9.69713 0.641799C9.69713 0.287343 9.38252 0 8.99443 0C8.60633 0 8.29172 0.287343 8.29172 0.641799V2.59694H0.702461C0.314368 2.59694 -0.000244141 2.88428 -0.000244141 3.23874C-0.000244141 3.5932 0.314368 3.88054 0.702461 3.88054H1.45125L2.27004 15.2255C2.37815 16.7856 3.79437 18.0001 5.50248 18.0001H12.3782C14.0863 18.0001 15.5133 16.7856 15.6106 15.2255L16.4494 3.88054H17.2971C17.6852 3.88054 17.9998 3.5932 17.9998 3.23874C17.9998 2.88428 17.6852 2.59694 17.2971 2.59694H9.69713V0.641799ZM7.72949 7.01061C7.72949 6.65615 7.41487 6.36881 7.02678 6.36881C6.63869 6.36881 6.32408 6.65615 6.32408 7.01061V13.2805C6.32408 13.6349 6.63869 13.9223 7.02678 13.9223C7.41487 13.9223 7.72949 13.6349 7.72949 13.2805V7.01061ZM10.9727 6.36881C11.3608 6.36881 11.6754 6.65615 11.6754 7.01061V13.2805C11.6754 13.6349 11.3608 13.9223 10.9727 13.9223C10.5846 13.9223 10.27 13.6349 10.27 13.2805V7.01061C10.27 6.65615 10.5846 6.36881 10.9727 6.36881Z" fill="white"/>
</svg>
