<svg width="16" height="16" viewBox="0 0 16 16" fill="none" xmlns="http://www.w3.org/2000/svg">
<path d="M14.3727 0.401079C13.8354 -0.133694 12.9642 -0.133692 12.4268 0.401081L11.2029 1.61911C10.9305 1.89018 10.9276 2.33015 11.1963 2.60482L13.3874 4.84419C13.6594 5.12218 14.1058 5.12516 14.3815 4.85081L15.597 3.64117C16.1343 3.1064 16.1343 2.23936 15.597 1.70459L14.3727 0.401079Z" fill="currentColor"/>
<path d="M12.4162 6.8067C12.6886 6.53563 12.6915 6.09566 12.4228 5.82099L10.2317 3.58162C9.95971 3.30362 9.51325 3.30065 9.23758 3.575L1.34238 11.4323C0.92157 11.8511 0.627485 12.3791 0.493666 12.9562L0.0708305 14.7797C-0.157815 15.7658 0.158177 16.1654 1.14898 15.9378L2.98126 15.517C3.56114 15.3839 4.09175 15.0912 4.51256 14.6724L12.4162 6.8067Z" fill="currentColor"/>
</svg>
