<svg width="24" height="24" viewBox="0 0 24 24" fill="none" xmlns="http://www.w3.org/2000/svg">
<path d="M11.7739 4H4.77393C4.24349 4 3.73478 4.21071 3.35971 4.58579C2.98464 4.96086 2.77393 5.46957 2.77393 6V20C2.77393 20.5304 2.98464 21.0391 3.35971 21.4142C3.73478 21.7893 4.24349 22 4.77393 22H18.7739C19.3044 22 19.8131 21.7893 20.1881 21.4142C20.5632 21.0391 20.7739 20.5304 20.7739 20V13" stroke="white" stroke-width="2" stroke-linecap="round" stroke-linejoin="round"/>
<path d="M19.2739 2.50023C19.6718 2.1024 20.2113 1.87891 20.7739 1.87891C21.3365 1.87891 21.8761 2.1024 22.2739 2.50023C22.6718 2.89805 22.8952 3.43762 22.8952 4.00023C22.8952 4.56284 22.6718 5.1024 22.2739 5.50023L12.7739 15.0002L8.77393 16.0002L9.77393 12.0002L19.2739 2.50023Z" stroke="white" stroke-width="2" stroke-linecap="round" stroke-linejoin="round"/>
</svg>
