<svg width="24" height="24" viewBox="0 0 24 24" fill="none" xmlns="http://www.w3.org/2000/svg">
<path fill-rule="evenodd" clip-rule="evenodd" d="M1.97036 12C1.97036 6.33593 6.562 1.74429 12.2261 1.74429C17.8901 1.74429 22.4818 6.33593 22.4818 12V12.4556C22.4818 13.7317 21.4473 14.7662 20.1712 14.7662C18.895 14.7662 17.8605 13.7317 17.8605 12.4556V7.45044C17.8605 6.96877 17.4701 6.5783 16.9884 6.5783C16.5067 6.5783 16.1162 6.96877 16.1162 7.45044V7.97273C15.1089 6.99938 13.7373 6.40056 12.2259 6.40056C9.13339 6.40056 6.62644 8.90751 6.62644 12C6.62644 15.0925 9.13339 17.5994 12.2259 17.5994C14.2322 17.5994 15.992 16.5443 16.9808 14.9586C17.7231 15.9035 18.8763 16.5105 20.1712 16.5105C22.4106 16.5105 24.2261 14.695 24.2261 12.4556V12C24.2261 5.37258 18.8535 0 12.2261 0C5.59866 0 0.226074 5.37258 0.226074 12C0.226074 18.6252 5.55217 24 12.2261 24C16.0408 24 18.7889 22.4782 20.4291 21.1894C20.8078 20.8917 20.8735 20.3435 20.5759 19.9647C20.2783 19.586 19.73 19.5202 19.3513 19.8179C17.9289 20.9356 15.5494 22.2557 12.2261 22.2557C6.52003 22.2557 1.97036 17.6663 1.97036 12ZM16.081 12C16.081 14.1291 14.355 15.8551 12.2259 15.8551C10.0967 15.8551 8.37073 14.1291 8.37073 12C8.37073 9.87086 10.0967 8.14485 12.2259 8.14485C14.355 8.14485 16.081 9.87086 16.081 12Z" fill="white"/>
</svg>
