<svg width="24" height="24" viewBox="0 0 24 24" fill="none" xmlns="http://www.w3.org/2000/svg">
<path d="M7.25597 11.9999C7.25597 12.994 6.45008 13.7999 5.45597 13.7999C4.46186 13.7999 3.65597 12.994 3.65597 11.9999C3.65597 11.0057 4.46186 10.1999 5.45597 10.1999C6.45008 10.1999 7.25597 11.0057 7.25597 11.9999Z" fill="white"/>
<path d="M14.156 11.9999C14.156 12.994 13.3501 13.7999 12.356 13.7999C11.3619 13.7999 10.556 12.994 10.556 11.9999C10.556 11.0057 11.3619 10.1999 12.356 10.1999C13.3501 10.1999 14.156 11.0057 14.156 11.9999Z" fill="white"/>
<path d="M21.056 11.9999C21.056 12.994 20.2501 13.7999 19.256 13.7999C18.2619 13.7999 17.456 12.994 17.456 11.9999C17.456 11.0057 18.2619 10.1999 19.256 10.1999C20.2501 10.1999 21.056 11.0057 21.056 11.9999Z" fill="white"/>
<path d="M3.82607 0H4.7852C5.21599 0 5.5652 0.349218 5.5652 0.78C5.5652 1.21078 5.21599 1.56 4.7852 1.56H3.82607C2.69941 1.56 1.78607 2.47334 1.78607 3.6V4.42917C1.78607 4.85995 1.43686 5.20917 1.00607 5.20917C0.575292 5.20917 0.226074 4.85995 0.226074 4.42917V3.6C0.226074 1.61177 1.83785 0 3.82607 0Z" fill="white"/>
<path d="M1.00607 18.7907C0.575292 18.7907 0.226074 19.1399 0.226074 19.5707V20.4C0.226074 22.3882 1.83785 24 3.82607 24H4.78521C5.21599 24 5.5652 23.6508 5.5652 23.22C5.5652 22.7892 5.21599 22.44 4.7852 22.44H3.82607C2.69941 22.44 1.78607 21.5267 1.78607 20.4V19.5707C1.78607 19.1399 1.43686 18.7907 1.00607 18.7907Z" fill="white"/>
<path d="M23.4461 18.7907C23.0153 18.7907 22.6661 19.1399 22.6661 19.5707V20.4C22.6661 21.5267 21.7527 22.44 20.6261 22.44H19.9267C19.4959 22.44 19.1467 22.7892 19.1467 23.22C19.1467 23.6508 19.4959 24 19.9267 24H20.6261C22.6143 24 24.2261 22.3882 24.2261 20.4V19.5707C24.2261 19.1399 23.8769 18.7907 23.4461 18.7907Z" fill="white"/>
<path d="M23.4461 5.20917C23.8769 5.20917 24.2261 4.85995 24.2261 4.42917V3.6C24.2261 1.61178 22.6143 0 20.6261 0H19.9267C19.4959 0 19.1467 0.349218 19.1467 0.78C19.1467 1.21078 19.4959 1.56 19.9267 1.56H20.6261C21.7527 1.56 22.6661 2.47334 22.6661 3.6V4.42917C22.6661 4.85995 23.0153 5.20917 23.4461 5.20917Z" fill="white"/>
</svg>
