<svg viewBox="0 0 281 57" fill="none" xmlns="http://www.w3.org/2000/svg">
<path d="M25.5408 46.896C21.9568 46.896 18.6501 46.32 15.6208 45.168C12.5914 44.016 9.94608 42.3947 7.68475 40.304C5.46608 38.1707 3.73808 35.696 2.50075 32.88C1.26342 30.064 0.64475 26.9707 0.64475 23.6C0.64475 20.2293 1.26342 17.136 2.50075 14.32C3.73808 11.504 5.46608 9.05066 7.68475 6.96C9.94608 4.82667 12.5914 3.184 15.6208 2.032C18.6501 0.879997 21.9568 0.303997 25.5408 0.303997C29.1674 0.303997 32.4741 0.879997 35.4608 2.032C38.4901 3.184 41.1141 4.80533 43.3328 6.896C45.5514 8.98667 47.2794 11.4613 48.5168 14.32C49.7968 17.136 50.4368 20.2293 50.4368 23.6C50.4368 26.9707 49.7968 30.0853 48.5168 32.944C47.2794 35.76 45.5514 38.2133 43.3328 40.304C41.1141 42.3947 38.4901 44.016 35.4608 45.168C32.4741 46.32 29.1674 46.896 25.5408 46.896ZM40.1968 56.816C38.2768 56.816 36.4848 56.6027 34.8208 56.176C33.1568 55.792 31.5141 55.152 29.8928 54.256C28.3141 53.36 26.6501 52.144 24.9008 50.608C23.1941 49.072 21.2741 47.1733 19.1408 44.912L32.3888 41.584C33.4554 43.1627 34.4154 44.4 35.2688 45.296C36.1221 46.192 36.9541 46.832 37.7648 47.216C38.6181 47.6 39.5141 47.792 40.4528 47.792C42.9274 47.792 45.1888 46.7467 47.2368 44.656L52.7408 51.184C49.6261 54.9387 45.4448 56.816 40.1968 56.816ZM25.5408 36.4C27.2474 36.4 28.8261 36.1013 30.2768 35.504C31.7701 34.9067 33.0501 34.0533 34.1168 32.944C35.2261 31.792 36.0794 30.4267 36.6768 28.848C37.3168 27.2693 37.6368 25.52 37.6368 23.6C37.6368 21.6373 37.3168 19.888 36.6768 18.352C36.0794 16.7733 35.2261 15.4293 34.1168 14.32C33.0501 13.168 31.7701 12.2933 30.2768 11.696C28.8261 11.0987 27.2474 10.8 25.5408 10.8C23.8341 10.8 22.2341 11.0987 20.7408 11.696C19.2901 12.2933 18.0101 13.168 16.9008 14.32C15.8341 15.4293 14.9808 16.7733 14.3408 18.352C13.7434 19.888 13.4448 21.6373 13.4448 23.6C13.4448 25.52 13.7434 27.2693 14.3408 28.848C14.9808 30.4267 15.8341 31.792 16.9008 32.944C18.0101 34.0533 19.2901 34.9067 20.7408 35.504C22.2341 36.1013 23.8341 36.4 25.5408 36.4ZM161.511 46V1.2H174.183V35.952H195.559V46H161.511ZM200.574 46V1.2H213.246V35.952H234.622V46H200.574Z" fill="#ff4f4f"/>
<path d="M77.7458 46.896C71.1324 46.896 65.9698 45.0827 62.2578 41.456C58.5458 37.8293 56.6898 32.688 56.6898 26.032V1.2H69.3618V25.648C69.3618 29.488 70.1084 32.24 71.6018 33.904C73.1378 35.568 75.2284 36.4 77.8738 36.4C80.5191 36.4 82.5884 35.568 84.0818 33.904C85.5751 32.24 86.3218 29.488 86.3218 25.648V1.2H98.8018V26.032C98.8018 32.688 96.9458 37.8293 93.2338 41.456C89.5218 45.0827 84.3591 46.896 77.7458 46.896ZM129.978 46.896C126.394 46.896 123.088 46.32 120.058 45.168C117.029 44.016 114.384 42.3947 112.122 40.304C109.904 38.1707 108.176 35.696 106.938 32.88C105.701 30.064 105.082 26.9707 105.082 23.6C105.082 20.2293 105.701 17.136 106.938 14.32C108.176 11.504 109.904 9.05066 112.122 6.96C114.384 4.82667 117.029 3.184 120.058 2.032C123.088 0.879997 126.394 0.303997 129.978 0.303997C133.605 0.303997 136.912 0.879997 139.898 2.032C142.928 3.184 145.552 4.82667 147.77 6.96C149.989 9.05066 151.717 11.504 152.954 14.32C154.234 17.136 154.874 20.2293 154.874 23.6C154.874 26.9707 154.234 30.0853 152.954 32.944C151.717 35.76 149.989 38.2133 147.77 40.304C145.552 42.3947 142.928 44.016 139.898 45.168C136.912 46.32 133.605 46.896 129.978 46.896ZM129.978 36.4C131.685 36.4 133.264 36.1013 134.714 35.504C136.208 34.9067 137.488 34.0533 138.554 32.944C139.664 31.792 140.517 30.4267 141.114 28.848C141.754 27.2693 142.074 25.52 142.074 23.6C142.074 21.6373 141.754 19.888 141.114 18.352C140.517 16.7733 139.664 15.4293 138.554 14.32C137.488 13.168 136.208 12.2933 134.714 11.696C133.264 11.0987 131.685 10.8 129.978 10.8C128.272 10.8 126.672 11.0987 125.178 11.696C123.728 12.2933 122.448 13.168 121.338 14.32C120.272 15.4293 119.418 16.7733 118.778 18.352C118.181 19.888 117.882 21.6373 117.882 23.6C117.882 25.52 118.181 27.2693 118.778 28.848C119.418 30.4267 120.272 31.792 121.338 32.944C122.448 34.0533 123.728 34.9067 125.178 35.504C126.672 36.1013 128.272 36.4 129.978 36.4ZM250.964 46V27.056L253.908 34.672L233.876 1.2H247.252L261.716 25.456H253.972L268.5 1.2H280.788L260.82 34.672L263.636 27.056V46H250.964Z" fill="white"/>
</svg>
